<svg xmlns="http://www.w3.org/2000/svg" xmlns:xlink="http://www.w3.org/1999/xlink" width="500" zoomAndPan="magnify" viewBox="0 0 375 374.999991" height="500" preserveAspectRatio="xMidYMid meet" version="1.0"><defs><g/></defs><g fill="#004aad" fill-opacity="1"><g transform="translate(79.616812, 138.495359)"><g><path d="M 31.234375 0 L 26.875 0 L 23.65625 -9.515625 L 8.875 -9.515625 L 5.65625 0 L 1.375 0 L 13.484375 -34.703125 L 19.125 -34.703125 Z M 15.96875 -30.5 L 10.015625 -12.9375 L 22.5 -12.9375 L 16.5625 -30.5 Z M 15.96875 -30.5 "/></g></g></g><g fill="#004aad" fill-opacity="1"><g transform="translate(112.231111, 138.495359)"><g><path d="M 10.421875 0.5 C 8.566406 0.5 7.109375 -0.0234375 6.046875 -1.078125 C 4.992188 -2.128906 4.46875 -3.703125 4.46875 -5.796875 L 4.46875 -36.6875 L 8.328125 -36.6875 L 8.328125 -6.046875 C 8.328125 -4.960938 8.535156 -4.175781 8.953125 -3.6875 C 9.378906 -3.207031 10.035156 -2.96875 10.921875 -2.96875 C 11.453125 -2.96875 12 -3.054688 12.5625 -3.234375 L 12.890625 -3.140625 L 13.34375 -0.09375 C 13.050781 0.09375 12.640625 0.238281 12.109375 0.34375 C 11.585938 0.445312 11.023438 0.5 10.421875 0.5 Z M 10.421875 0.5 "/></g></g></g><g fill="#004aad" fill-opacity="1"><g transform="translate(126.473163, 138.495359)"><g><path d="M 4.5625 0 L 4.5625 -26.1875 L 8.234375 -26.1875 L 8.234375 -22.3125 L 8.734375 -22.21875 C 9.617188 -23.6875 10.691406 -24.796875 11.953125 -25.546875 C 13.210938 -26.296875 14.71875 -26.671875 16.46875 -26.671875 C 18.5 -26.671875 20.066406 -26.285156 21.171875 -25.515625 C 22.273438 -24.753906 23.140625 -23.519531 23.765625 -21.8125 L 24.25 -21.8125 C 25.15625 -23.40625 26.269531 -24.613281 27.59375 -25.4375 C 28.914062 -26.257812 30.539062 -26.671875 32.46875 -26.671875 C 35.15625 -26.671875 37.160156 -25.941406 38.484375 -24.484375 C 39.804688 -23.035156 40.46875 -20.820312 40.46875 -17.84375 L 40.46875 0 L 36.59375 0 L 36.59375 -17.75 C 36.59375 -19.65625 36.191406 -21.054688 35.390625 -21.953125 C 34.597656 -22.859375 33.316406 -23.3125 31.546875 -23.3125 C 29.453125 -23.3125 27.742188 -22.550781 26.421875 -21.03125 C 25.109375 -19.507812 24.453125 -17.007812 24.453125 -13.53125 L 24.453125 0 L 20.578125 0 L 20.578125 -17.75 C 20.578125 -19.65625 20.175781 -21.054688 19.375 -21.953125 C 18.582031 -22.859375 17.296875 -23.3125 15.515625 -23.3125 C 13.429688 -23.3125 11.726562 -22.570312 10.40625 -21.09375 C 9.082031 -19.625 8.421875 -17.238281 8.421875 -13.9375 L 8.421875 0 Z M 4.5625 0 "/></g></g></g><g fill="#004aad" fill-opacity="1"><g transform="translate(171.098259, 138.495359)"><g><path d="M 15.03125 0.5 C 12.5625 0.5 10.410156 -0.0195312 8.578125 -1.0625 C 6.753906 -2.113281 5.347656 -3.65625 4.359375 -5.6875 C 3.367188 -7.71875 2.875 -10.179688 2.875 -13.078125 C 2.875 -15.972656 3.367188 -18.441406 4.359375 -20.484375 C 5.347656 -22.523438 6.753906 -24.066406 8.578125 -25.109375 C 10.410156 -26.148438 12.5625 -26.671875 15.03125 -26.671875 C 17.5 -26.671875 19.644531 -26.148438 21.46875 -25.109375 C 23.289062 -24.066406 24.695312 -22.523438 25.6875 -20.484375 C 26.675781 -18.441406 27.171875 -15.972656 27.171875 -13.078125 C 27.171875 -10.179688 26.675781 -7.71875 25.6875 -5.6875 C 24.695312 -3.65625 23.289062 -2.113281 21.46875 -1.0625 C 19.644531 -0.0195312 17.5 0.5 15.03125 0.5 Z M 15.03125 -2.96875 C 17.632812 -2.96875 19.628906 -3.789062 21.015625 -5.4375 C 22.398438 -7.082031 23.09375 -9.628906 23.09375 -13.078125 C 23.09375 -16.546875 22.398438 -19.101562 21.015625 -20.75 C 19.628906 -22.394531 17.632812 -23.21875 15.03125 -23.21875 C 12.414062 -23.21875 10.410156 -22.390625 9.015625 -20.734375 C 7.628906 -19.078125 6.9375 -16.523438 6.9375 -13.078125 C 6.9375 -9.628906 7.628906 -7.082031 9.015625 -5.4375 C 10.410156 -3.789062 12.414062 -2.96875 15.03125 -2.96875 Z M 15.03125 -2.96875 "/></g></g></g><g fill="#004aad" fill-opacity="1"><g transform="translate(201.14899, 138.495359)"><g><path d="M 12.9375 0.5 C 9.976562 0.5 7.773438 -0.28125 6.328125 -1.84375 C 4.878906 -3.414062 4.15625 -5.710938 4.15625 -8.734375 L 4.15625 -26.1875 L 8.015625 -26.1875 L 8.015625 -8.828125 C 8.015625 -4.859375 9.882812 -2.875 13.625 -2.875 C 16 -2.875 17.875 -3.648438 19.25 -5.203125 C 20.625 -6.753906 21.3125 -9.269531 21.3125 -12.75 L 21.3125 -26.1875 L 25.1875 -26.1875 L 25.1875 0 L 21.53125 0 L 21.53125 -4.109375 L 21.03125 -4.21875 C 20.125 -2.625 19.039062 -1.4375 17.78125 -0.65625 C 16.53125 0.113281 14.914062 0.5 12.9375 0.5 Z M 12.9375 0.5 "/></g></g></g><g fill="#004aad" fill-opacity="1"><g transform="translate(230.891159, 138.495359)"><g><path d="M 4.5625 0 L 4.5625 -26.1875 L 8.234375 -26.1875 L 8.234375 -22.078125 L 8.734375 -21.953125 C 9.953125 -24.929688 12.25 -26.421875 15.625 -26.421875 C 17.40625 -26.421875 18.738281 -26.09375 19.625 -25.4375 L 18.625 -22.171875 L 18.15625 -22.078125 C 17.175781 -22.566406 16.097656 -22.8125 14.921875 -22.8125 C 12.835938 -22.8125 11.234375 -22.023438 10.109375 -20.453125 C 8.984375 -18.890625 8.421875 -16.351562 8.421875 -12.84375 L 8.421875 0 Z M 4.5625 0 "/></g></g></g><g fill="#004aad" fill-opacity="1"><g transform="translate(251.114874, 138.495359)"><g><path d="M 6.5 -31.234375 C 5.675781 -31.234375 5.003906 -31.488281 4.484375 -32 C 3.972656 -32.519531 3.71875 -33.175781 3.71875 -33.96875 C 3.71875 -34.757812 3.972656 -35.410156 4.484375 -35.921875 C 5.003906 -36.429688 5.675781 -36.6875 6.5 -36.6875 C 7.320312 -36.6875 7.988281 -36.429688 8.5 -35.921875 C 9.019531 -35.410156 9.28125 -34.757812 9.28125 -33.96875 C 9.28125 -33.175781 9.019531 -32.519531 8.5 -32 C 7.988281 -31.488281 7.320312 -31.234375 6.5 -31.234375 Z M 4.5625 0 L 4.5625 -26.1875 L 8.421875 -26.1875 L 8.421875 0 Z M 4.5625 0 "/></g></g></g><g fill="#004aad" fill-opacity="1"><g transform="translate(264.098895, 138.495359)"><g><path d="M 13.578125 0.5 C 11.472656 0.5 9.613281 0 8 -1 C 6.394531 -2.007812 5.140625 -3.523438 4.234375 -5.546875 C 3.328125 -7.578125 2.875 -10.085938 2.875 -13.078125 C 2.875 -16.066406 3.347656 -18.578125 4.296875 -20.609375 C 5.242188 -22.640625 6.550781 -24.15625 8.21875 -25.15625 C 9.894531 -26.164062 11.832031 -26.671875 14.03125 -26.671875 C 15.769531 -26.671875 17.332031 -26.34375 18.71875 -25.6875 C 20.113281 -25.03125 21.3125 -23.953125 22.3125 -22.453125 L 22.8125 -22.546875 L 22.8125 -36.6875 L 26.671875 -36.6875 L 26.671875 0 L 22.8125 0 L 22.8125 -3.828125 L 22.3125 -3.921875 C 21.457031 -2.617188 20.296875 -1.554688 18.828125 -0.734375 C 17.367188 0.0859375 15.617188 0.5 13.578125 0.5 Z M 14.78125 -2.96875 C 17.21875 -2.96875 19.164062 -3.800781 20.625 -5.46875 C 22.082031 -7.132812 22.8125 -9.671875 22.8125 -13.078125 C 22.8125 -16.492188 22.082031 -19.035156 20.625 -20.703125 C 19.164062 -22.378906 17.21875 -23.21875 14.78125 -23.21875 C 12.269531 -23.21875 10.332031 -22.398438 8.96875 -20.765625 C 7.613281 -19.140625 6.9375 -16.578125 6.9375 -13.078125 C 6.9375 -6.335938 9.550781 -2.96875 14.78125 -2.96875 Z M 14.78125 -2.96875 "/></g></g></g><g fill="#004aad" fill-opacity="1"><g transform="translate(92.08165, 204.594619)"><g/></g></g><g fill="#004aad" fill-opacity="1"><g transform="translate(103.997501, 204.594619)"><g/></g></g><g fill="#004aad" fill-opacity="1"><g transform="translate(115.942913, 204.594619)"><g><path d="M 25.640625 -34.703125 L 25.640625 -31.328125 L 9.328125 -31.328125 L 9.328125 -18.703125 L 24 -18.703125 L 24 -15.3125 L 9.328125 -15.3125 L 9.328125 0 L 5.25 0 L 5.25 -34.703125 Z M 25.640625 -34.703125 "/></g></g></g><g fill="#004aad" fill-opacity="1"><g transform="translate(143.453828, 204.594619)"><g><path d="M 15.03125 0.5 C 12.5625 0.5 10.410156 -0.0195312 8.578125 -1.0625 C 6.753906 -2.113281 5.347656 -3.65625 4.359375 -5.6875 C 3.367188 -7.71875 2.875 -10.179688 2.875 -13.078125 C 2.875 -15.972656 3.367188 -18.441406 4.359375 -20.484375 C 5.347656 -22.523438 6.753906 -24.066406 8.578125 -25.109375 C 10.410156 -26.148438 12.5625 -26.671875 15.03125 -26.671875 C 17.5 -26.671875 19.644531 -26.148438 21.46875 -25.109375 C 23.289062 -24.066406 24.695312 -22.523438 25.6875 -20.484375 C 26.675781 -18.441406 27.171875 -15.972656 27.171875 -13.078125 C 27.171875 -10.179688 26.675781 -7.71875 25.6875 -5.6875 C 24.695312 -3.65625 23.289062 -2.113281 21.46875 -1.0625 C 19.644531 -0.0195312 17.5 0.5 15.03125 0.5 Z M 15.03125 -2.96875 C 17.632812 -2.96875 19.628906 -3.789062 21.015625 -5.4375 C 22.398438 -7.082031 23.09375 -9.628906 23.09375 -13.078125 C 23.09375 -16.546875 22.398438 -19.101562 21.015625 -20.75 C 19.628906 -22.394531 17.632812 -23.21875 15.03125 -23.21875 C 12.414062 -23.21875 10.410156 -22.390625 9.015625 -20.734375 C 7.628906 -19.078125 6.9375 -16.523438 6.9375 -13.078125 C 6.9375 -9.628906 7.628906 -7.082031 9.015625 -5.4375 C 10.410156 -3.789062 12.414062 -2.96875 15.03125 -2.96875 Z M 15.03125 -2.96875 "/></g></g></g><g fill="#004aad" fill-opacity="1"><g transform="translate(173.504558, 204.594619)"><g><path d="M 4.5625 0 L 4.5625 -26.1875 L 8.234375 -26.1875 L 8.234375 -22.078125 L 8.734375 -21.953125 C 9.953125 -24.929688 12.25 -26.421875 15.625 -26.421875 C 17.40625 -26.421875 18.738281 -26.09375 19.625 -25.4375 L 18.625 -22.171875 L 18.15625 -22.078125 C 17.175781 -22.566406 16.097656 -22.8125 14.921875 -22.8125 C 12.835938 -22.8125 11.234375 -22.023438 10.109375 -20.453125 C 8.984375 -18.890625 8.421875 -16.351562 8.421875 -12.84375 L 8.421875 0 Z M 4.5625 0 "/></g></g></g><g fill="#004aad" fill-opacity="1"><g transform="translate(193.728273, 204.594619)"><g/></g></g><g fill="#ff914d" fill-opacity="1"><g transform="translate(205.654139, 204.594619)"><g><path d="M 19.03125 0.5 C 16.03125 0.5 13.359375 -0.144531 11.015625 -1.4375 C 8.671875 -2.738281 6.828125 -4.722656 5.484375 -7.390625 C 4.140625 -10.054688 3.46875 -13.375 3.46875 -17.34375 C 3.46875 -21.320312 4.140625 -24.644531 5.484375 -27.3125 C 6.828125 -29.976562 8.671875 -31.957031 11.015625 -33.25 C 13.359375 -34.550781 16.03125 -35.203125 19.03125 -35.203125 C 22.039062 -35.203125 24.71875 -34.550781 27.0625 -33.25 C 29.40625 -31.957031 31.25 -29.976562 32.59375 -27.3125 C 33.9375 -24.644531 34.609375 -21.320312 34.609375 -17.34375 C 34.609375 -13.375 33.9375 -10.054688 32.59375 -7.390625 C 31.25 -4.722656 29.40625 -2.738281 27.0625 -1.4375 C 24.71875 -0.144531 22.039062 0.5 19.03125 0.5 Z M 19.03125 -3.28125 C 22.644531 -3.28125 25.414062 -4.40625 27.34375 -6.65625 C 29.269531 -8.914062 30.234375 -12.476562 30.234375 -17.34375 C 30.234375 -22.21875 29.269531 -25.78125 27.34375 -28.03125 C 25.414062 -30.289062 22.644531 -31.421875 19.03125 -31.421875 C 11.5625 -31.421875 7.828125 -26.726562 7.828125 -17.34375 C 7.828125 -7.96875 11.5625 -3.28125 19.03125 -3.28125 Z M 19.03125 -3.28125 "/></g></g></g><g fill="#ff914d" fill-opacity="1"><g transform="translate(243.727892, 204.594619)"><g><path d="M 6.5 -31.234375 C 5.675781 -31.234375 5.003906 -31.488281 4.484375 -32 C 3.972656 -32.519531 3.71875 -33.175781 3.71875 -33.96875 C 3.71875 -34.757812 3.972656 -35.410156 4.484375 -35.921875 C 5.003906 -36.429688 5.675781 -36.6875 6.5 -36.6875 C 7.320312 -36.6875 7.988281 -36.429688 8.5 -35.921875 C 9.019531 -35.410156 9.28125 -34.757812 9.28125 -33.96875 C 9.28125 -33.175781 9.019531 -32.519531 8.5 -32 C 7.988281 -31.488281 7.320312 -31.234375 6.5 -31.234375 Z M 4.5625 0 L 4.5625 -26.1875 L 8.421875 -26.1875 L 8.421875 0 Z M 4.5625 0 "/></g></g></g><g fill="#ff914d" fill-opacity="1"><g transform="translate(256.711914, 204.594619)"><g><path d="M 10.421875 0.5 C 8.566406 0.5 7.109375 -0.0234375 6.046875 -1.078125 C 4.992188 -2.128906 4.46875 -3.703125 4.46875 -5.796875 L 4.46875 -36.6875 L 8.328125 -36.6875 L 8.328125 -6.046875 C 8.328125 -4.960938 8.535156 -4.175781 8.953125 -3.6875 C 9.378906 -3.207031 10.035156 -2.96875 10.921875 -2.96875 C 11.453125 -2.96875 12 -3.054688 12.5625 -3.234375 L 12.890625 -3.140625 L 13.34375 -0.09375 C 13.050781 0.09375 12.640625 0.238281 12.109375 0.34375 C 11.585938 0.445312 11.023438 0.5 10.421875 0.5 Z M 10.421875 0.5 "/></g></g></g><g fill="#000000" fill-opacity="1"><g transform="translate(270.969895, 204.594619)"><g/></g></g><g fill="#000000" fill-opacity="1"><g transform="translate(76.696478, 270.693879)"><g/></g></g><g fill="#004aad" fill-opacity="1"><g transform="translate(88.627109, 270.693879)"><g><path d="M 15.171875 0.5 C 12.984375 0.5 11.019531 0.203125 9.28125 -0.390625 C 7.550781 -0.984375 6.109375 -1.757812 4.953125 -2.71875 C 3.804688 -3.6875 2.945312 -4.75 2.375 -5.90625 L 4.609375 -8.609375 L 5.203125 -8.609375 C 7.347656 -4.992188 10.671875 -3.1875 15.171875 -3.1875 C 17.773438 -3.1875 19.710938 -3.726562 20.984375 -4.8125 C 22.265625 -5.90625 22.90625 -7.425781 22.90625 -9.375 C 22.90625 -10.507812 22.691406 -11.472656 22.265625 -12.265625 C 21.847656 -13.054688 21.15625 -13.734375 20.1875 -14.296875 C 19.226562 -14.859375 17.921875 -15.347656 16.265625 -15.765625 L 12.203125 -16.75 C 9.179688 -17.476562 6.953125 -18.640625 5.515625 -20.234375 C 4.085938 -21.828125 3.375 -23.84375 3.375 -26.28125 C 3.375 -28 3.816406 -29.535156 4.703125 -30.890625 C 5.585938 -32.242188 6.882812 -33.300781 8.59375 -34.0625 C 10.300781 -34.820312 12.34375 -35.203125 14.71875 -35.203125 C 17.320312 -35.203125 19.519531 -34.832031 21.3125 -34.09375 C 23.113281 -33.351562 24.554688 -32.25 25.640625 -30.78125 L 23.640625 -28.109375 L 23.046875 -28.109375 C 22.046875 -29.328125 20.863281 -30.21875 19.5 -30.78125 C 18.144531 -31.351562 16.550781 -31.640625 14.71875 -31.640625 C 12.3125 -31.640625 10.492188 -31.171875 9.265625 -30.234375 C 8.035156 -29.304688 7.421875 -28.019531 7.421875 -26.375 C 7.421875 -24.800781 7.875 -23.550781 8.78125 -22.625 C 9.6875 -21.707031 11.207031 -20.992188 13.34375 -20.484375 L 17.5 -19.484375 C 20.863281 -18.691406 23.300781 -17.476562 24.8125 -15.84375 C 26.320312 -14.207031 27.078125 -12.113281 27.078125 -9.5625 C 27.078125 -7.601562 26.640625 -5.867188 25.765625 -4.359375 C 24.890625 -2.847656 23.554688 -1.660156 21.765625 -0.796875 C 19.972656 0.0664062 17.773438 0.5 15.171875 0.5 Z M 15.171875 0.5 "/></g></g></g><g fill="#004aad" fill-opacity="1"><g transform="translate(118.369279, 270.693879)"><g><path d="M 24.953125 -12.203125 L 6.953125 -12.203125 C 7.066406 -9.015625 7.832031 -6.675781 9.25 -5.1875 C 10.664062 -3.707031 12.609375 -2.96875 15.078125 -2.96875 C 16.941406 -2.96875 18.441406 -3.296875 19.578125 -3.953125 C 20.722656 -4.617188 21.617188 -5.664062 22.265625 -7.09375 L 22.765625 -7.09375 L 25.28125 -5.59375 C 24.519531 -3.695312 23.300781 -2.207031 21.625 -1.125 C 19.957031 -0.0390625 17.773438 0.5 15.078125 0.5 C 12.546875 0.5 10.367188 0.00390625 8.546875 -0.984375 C 6.722656 -1.984375 5.320312 -3.492188 4.34375 -5.515625 C 3.363281 -7.546875 2.875 -10.066406 2.875 -13.078125 C 2.875 -16.054688 3.390625 -18.5625 4.421875 -20.59375 C 5.460938 -22.632812 6.878906 -24.15625 8.671875 -25.15625 C 10.472656 -26.164062 12.523438 -26.671875 14.828125 -26.671875 C 18.179688 -26.671875 20.800781 -25.722656 22.6875 -23.828125 C 24.570312 -21.941406 25.519531 -19.140625 25.53125 -15.421875 C 25.53125 -13.972656 25.5 -12.992188 25.4375 -12.484375 Z M 21.71875 -15.421875 C 21.65625 -18.210938 21.035156 -20.238281 19.859375 -21.5 C 18.691406 -22.769531 17.015625 -23.40625 14.828125 -23.40625 C 12.535156 -23.40625 10.734375 -22.765625 9.421875 -21.484375 C 8.117188 -20.210938 7.328125 -18.191406 7.046875 -15.421875 Z M 21.71875 -15.421875 "/></g></g></g><g fill="#004aad" fill-opacity="1"><g transform="translate(146.283701, 270.693879)"><g><path d="M 4.5625 0 L 4.5625 -26.1875 L 8.234375 -26.1875 L 8.234375 -22.078125 L 8.734375 -21.953125 C 9.953125 -24.929688 12.25 -26.421875 15.625 -26.421875 C 17.40625 -26.421875 18.738281 -26.09375 19.625 -25.4375 L 18.625 -22.171875 L 18.15625 -22.078125 C 17.175781 -22.566406 16.097656 -22.8125 14.921875 -22.8125 C 12.835938 -22.8125 11.234375 -22.023438 10.109375 -20.453125 C 8.984375 -18.890625 8.421875 -16.351562 8.421875 -12.84375 L 8.421875 0 Z M 4.5625 0 "/></g></g></g><g fill="#004aad" fill-opacity="1"><g transform="translate(166.507416, 270.693879)"><g><path d="M 16.5625 0 L 11.25 0 L 1.28125 -26.1875 L 5.453125 -26.1875 L 13.6875 -4.421875 L 14.234375 -4.421875 L 22.40625 -26.1875 L 26.484375 -26.1875 Z M 16.5625 0 "/></g></g></g><g fill="#004aad" fill-opacity="1"><g transform="translate(194.255698, 270.693879)"><g><path d="M 6.5 -31.234375 C 5.675781 -31.234375 5.003906 -31.488281 4.484375 -32 C 3.972656 -32.519531 3.71875 -33.175781 3.71875 -33.96875 C 3.71875 -34.757812 3.972656 -35.410156 4.484375 -35.921875 C 5.003906 -36.429688 5.675781 -36.6875 6.5 -36.6875 C 7.320312 -36.6875 7.988281 -36.429688 8.5 -35.921875 C 9.019531 -35.410156 9.28125 -34.757812 9.28125 -33.96875 C 9.28125 -33.175781 9.019531 -32.519531 8.5 -32 C 7.988281 -31.488281 7.320312 -31.234375 6.5 -31.234375 Z M 4.5625 0 L 4.5625 -26.1875 L 8.421875 -26.1875 L 8.421875 0 Z M 4.5625 0 "/></g></g></g><g fill="#004aad" fill-opacity="1"><g transform="translate(207.23972, 270.693879)"><g><path d="M 15.03125 0.5 C 12.71875 0.5 10.640625 -0.0234375 8.796875 -1.078125 C 6.960938 -2.128906 5.515625 -3.679688 4.453125 -5.734375 C 3.398438 -7.785156 2.875 -10.234375 2.875 -13.078125 C 2.875 -15.941406 3.398438 -18.394531 4.453125 -20.4375 C 5.515625 -22.488281 6.960938 -24.039062 8.796875 -25.09375 C 10.640625 -26.144531 12.71875 -26.671875 15.03125 -26.671875 C 17.789062 -26.671875 19.988281 -26.148438 21.625 -25.109375 C 23.269531 -24.066406 24.457031 -22.675781 25.1875 -20.9375 L 22.546875 -19.03125 L 22.078125 -19.03125 C 21.359375 -20.476562 20.441406 -21.535156 19.328125 -22.203125 C 18.210938 -22.878906 16.78125 -23.21875 15.03125 -23.21875 C 13.414062 -23.21875 12 -22.835938 10.78125 -22.078125 C 9.5625 -21.316406 8.613281 -20.175781 7.9375 -18.65625 C 7.269531 -17.132812 6.9375 -15.273438 6.9375 -13.078125 C 6.9375 -10.890625 7.273438 -9.039062 7.953125 -7.53125 C 8.628906 -6.019531 9.570312 -4.878906 10.78125 -4.109375 C 12 -3.347656 13.414062 -2.96875 15.03125 -2.96875 C 16.84375 -2.96875 18.347656 -3.378906 19.546875 -4.203125 C 20.742188 -5.023438 21.679688 -6.320312 22.359375 -8.09375 L 22.859375 -8.09375 L 25.390625 -6.59375 C 24.710938 -4.394531 23.5 -2.660156 21.75 -1.390625 C 20 -0.128906 17.757812 0.5 15.03125 0.5 Z M 15.03125 0.5 "/></g></g></g><g fill="#004aad" fill-opacity="1"><g transform="translate(234.228426, 270.693879)"><g><path d="M 24.953125 -12.203125 L 6.953125 -12.203125 C 7.066406 -9.015625 7.832031 -6.675781 9.25 -5.1875 C 10.664062 -3.707031 12.609375 -2.96875 15.078125 -2.96875 C 16.941406 -2.96875 18.441406 -3.296875 19.578125 -3.953125 C 20.722656 -4.617188 21.617188 -5.664062 22.265625 -7.09375 L 22.765625 -7.09375 L 25.28125 -5.59375 C 24.519531 -3.695312 23.300781 -2.207031 21.625 -1.125 C 19.957031 -0.0390625 17.773438 0.5 15.078125 0.5 C 12.546875 0.5 10.367188 0.00390625 8.546875 -0.984375 C 6.722656 -1.984375 5.320312 -3.492188 4.34375 -5.515625 C 3.363281 -7.546875 2.875 -10.066406 2.875 -13.078125 C 2.875 -16.054688 3.390625 -18.5625 4.421875 -20.59375 C 5.460938 -22.632812 6.878906 -24.15625 8.671875 -25.15625 C 10.472656 -26.164062 12.523438 -26.671875 14.828125 -26.671875 C 18.179688 -26.671875 20.800781 -25.722656 22.6875 -23.828125 C 24.570312 -21.941406 25.519531 -19.140625 25.53125 -15.421875 C 25.53125 -13.972656 25.5 -12.992188 25.4375 -12.484375 Z M 21.71875 -15.421875 C 21.65625 -18.210938 21.035156 -20.238281 19.859375 -21.5 C 18.691406 -22.769531 17.015625 -23.40625 14.828125 -23.40625 C 12.535156 -23.40625 10.734375 -22.765625 9.421875 -21.484375 C 8.117188 -20.210938 7.328125 -18.191406 7.046875 -15.421875 Z M 21.71875 -15.421875 "/></g></g></g><g fill="#004aad" fill-opacity="1"><g transform="translate(262.142848, 270.693879)"><g><path d="M 11.9375 0.5 C 10.289062 0.5 8.765625 0.28125 7.359375 -0.15625 C 5.960938 -0.59375 4.78125 -1.1875 3.8125 -1.9375 C 2.851562 -2.695312 2.175781 -3.554688 1.78125 -4.515625 L 4.0625 -6.890625 L 4.5625 -6.890625 C 5.414062 -5.585938 6.441406 -4.609375 7.640625 -3.953125 C 8.847656 -3.296875 10.28125 -2.96875 11.9375 -2.96875 C 13.863281 -2.96875 15.328125 -3.34375 16.328125 -4.09375 C 17.335938 -4.84375 17.84375 -5.890625 17.84375 -7.234375 C 17.84375 -8.265625 17.535156 -9.113281 16.921875 -9.78125 C 16.316406 -10.457031 15.335938 -10.960938 13.984375 -11.296875 L 9.5625 -12.390625 C 7.207031 -12.960938 5.488281 -13.863281 4.40625 -15.09375 C 3.320312 -16.332031 2.78125 -17.859375 2.78125 -19.671875 C 2.78125 -21.097656 3.140625 -22.335938 3.859375 -23.390625 C 4.585938 -24.441406 5.632812 -25.25 7 -25.8125 C 8.375 -26.382812 10.003906 -26.671875 11.890625 -26.671875 C 14.296875 -26.671875 16.191406 -26.332031 17.578125 -25.65625 C 18.960938 -24.988281 20.039062 -24.054688 20.8125 -22.859375 L 18.625 -20.71875 L 18.15625 -20.71875 C 17.320312 -21.6875 16.410156 -22.382812 15.421875 -22.8125 C 14.429688 -23.238281 13.253906 -23.453125 11.890625 -23.453125 C 10.160156 -23.453125 8.835938 -23.140625 7.921875 -22.515625 C 7.003906 -21.898438 6.546875 -21.007812 6.546875 -19.84375 C 6.546875 -18.78125 6.867188 -17.925781 7.515625 -17.28125 C 8.171875 -16.632812 9.304688 -16.113281 10.921875 -15.71875 L 15.265625 -14.671875 C 17.535156 -14.128906 19.175781 -13.234375 20.1875 -11.984375 C 21.207031 -10.734375 21.71875 -9.164062 21.71875 -7.28125 C 21.71875 -5.75 21.351562 -4.394531 20.625 -3.21875 C 19.894531 -2.050781 18.796875 -1.140625 17.328125 -0.484375 C 15.859375 0.171875 14.0625 0.5 11.9375 0.5 Z M 11.9375 0.5 "/></g></g></g><g fill="#004aad" fill-opacity="1"><g transform="translate(286.355067, 270.693879)"><g/></g></g></svg>